<svg xmlns="http://www.w3.org/2000/svg" viewBox="0 0 220 177">
  <!-- R letterform in dark ink -->
  <path d="M51.5811 9.21094H140.297C174.087 9.21094 190.071 34.7693 190.071 59.7547C190.071 75.167 183.541 90.4378 170.862 99.8772C167.101 102.677 163.177 104.704 168.559 112.116C163.272 113.894 146.756 109.354 140.211 109.354H132.834L124.349 97.9286C124.349 97.9286 113.754 86.5036 128.952 86.5036C130.795 86.5036 132.174 86.5036 133.207 86.5036C153.582 86.5036 158.822 74.1476 158.822 59.7547C158.822 45.3618 153.019 36.5805 132.864 36.5805H102.401C102.401 36.5805 84.2797 36.5805 80.2269 36.5805C51.5811 36.5805 51.5811 9.21094 51.5811 9.21094ZM157.132 96.5541L216.008 175.928H196.786C196.786 175.928 181.183 175.928 171.322 162.35C132.834 109.354 123.228 96.5541 123.228 96.5541H157.132Z" fill="#0a1a0d"/>
  <!-- Leaf in green -->
  <path d="M3.60739 0C13.7393 18.8823 15.5815 20.2644 25.2529 29.0811C42.0901 44.4301 70.9082 54.267 88.8086 74.6084C106.265 94.446 109.438 113.918 106.769 136.321C104.588 154.639 129.297 175.895 129.336 175.928H105.388C105.388 175.928 107.69 169.941 102.624 162.111C99.4003 157.129 94.0686 155.533 86.9658 157.506C53.806 166.717 34.4629 157.045 22.0283 146.913C3.01277 131.419 -0.880808 111.561 0.15231 89.8057C0.838862 73.5071 4.78134 65.9022 3.14645 40.5283C1.63476 17.0672 0.383541 11.9741 3.60739 0ZM17.291 41.8369C17.291 41.8369 34.512 117.231 65.2011 135.519C69.3198 137.973 74.5673 140.474 78.7763 137.186C83.9061 133.913 84.2338 127.83 79.5224 124.531C38.569 95.8579 17.291 41.8369 17.291 41.8369Z" fill="#5a9e2f"/>
</svg>
