<svg xmlns="http://www.w3.org/2000/svg" viewBox="0 0 130 178">
  <rect width="130" height="178" rx="18" fill="#111f14"/>
  <path d="M3.607 0C13.739 18.882 15.582 20.264 25.253 29.081C42.09 44.43 70.908 54.267 88.809 74.608C106.265 94.446 109.438 113.918 106.769 136.321C104.588 154.639 129.297 175.895 129.336 175.928H105.388C105.388 175.928 107.69 169.941 102.624 162.111C99.4 157.129 94.069 155.533 86.966 157.506C53.806 166.717 34.463 157.045 22.028 146.913C3.013 131.419 -0.881 111.561 0.152 89.806C0.839 73.507 4.781 65.902 3.146 40.528C1.635 17.067 0.384 11.974 3.607 0ZM17.291 41.837C17.291 41.837 34.512 117.231 65.201 135.519C69.32 137.973 74.567 140.474 78.776 137.186C83.906 133.913 84.234 127.83 79.522 124.531C38.569 95.858 17.291 41.837 17.291 41.837Z" fill="#5a9e2f"/>
</svg>
